<svg width="1440" height="977" viewBox="0 0 1440 977" fill="none" xmlns="http://www.w3.org/2000/svg">
    <style>
    .svg-elem-4,
    .svg-elem-5,
    .svg-elem-6,
    .svg-elem-7,
    .svg-elem-8 {
      stroke-dasharray: 2000;
      stroke-dashoffset: 2000;
      animation: drawPath 6s ease-out forwards;
      fill: none;
    }
    .svg-elem-4 { animation-delay: 0.2s; }
    .svg-elem-5 { animation-delay: 0.8s; }
    .svg-elem-6 { animation-delay: 1.5s; }
    .svg-elem-7 { animation-delay: 2.5s; }
    .svg-elem-8 { animation-delay: 4s; }
    
    @keyframes drawPath {
      to {
        stroke-dashoffset: 0;
      }
    }
    </style>
<mask id="mask0_855_4638" style="mask-type:luminance" maskUnits="userSpaceOnUse" x="-35" y="-2" width="1511" height="962">
<path d="M1467.86 -1.22766H-35V330.642L-6.94884 348.987C-25.2279 390.373 -35 434.006 -35 479.088C-35 744.3 303.245 959.304 720.5 959.304C1137.75 959.304 1476 744.3 1476 479.088C1476 432.475 1465.55 387.393 1446.05 344.776L1467.88 330.642V-1.22766H1467.86Z" fill="white"/>
</mask>
<g mask="url(#mask0_855_4638)">
<rect x="-35.2324" y="-1.42712" width="1511.47" height="960.898" fill="#C8CEDE"/>
</g>
<path fill-rule="evenodd" clip-rule="evenodd" d="M716.238 906.698C1131.15 906.698 1467.48 691.645 1467.48 426.349C1467.48 381.234 1457.75 337.584 1439.58 296.198L1467.86 277.886V-54H-35V277.886L-7.06538 296.148C-25.2612 337.551 -35 381.234 -35 426.349C-35 691.645 301.348 906.698 716.238 906.698Z" fill="#092346"/>
<path d="M1021.64 400.519C1020.14 400.519 1018.66 400.873 1017.33 401.58L891.745 474.096C890.751 474.669 890.162 475.376 890.162 475.999C890.196 476.268 890.313 476.538 890.482 476.757C890.65 476.976 890.869 477.161 891.139 477.262L1017.95 550.468C1019.82 551.546 1023.24 551.378 1025.43 550.115L1151.01 477.599C1152 477.026 1152.59 476.319 1152.59 475.696C1152.56 475.427 1152.44 475.157 1152.27 474.938C1152.1 474.719 1151.88 474.551 1151.61 474.433L1024.8 401.226C1023.83 400.721 1022.73 400.485 1021.62 400.519H1021.64ZM1021.13 553.163C1019.68 553.197 1018.24 552.86 1016.96 552.186L890.145 478.98C889.572 478.71 889.101 478.289 888.764 477.767C888.427 477.245 888.225 476.639 888.191 476.016C888.191 474.652 889.135 473.338 890.751 472.395L1016.33 399.879C1019.16 398.262 1023.3 398.094 1025.78 399.525L1152.59 472.732C1153.16 473.001 1153.63 473.422 1153.99 473.944C1154.32 474.467 1154.53 475.073 1154.56 475.696C1154.56 477.06 1153.62 478.373 1152 479.317L1026.42 551.833C1024.8 552.725 1022.98 553.18 1021.15 553.163H1021.13Z" fill="none" stroke="#1B69FF" stroke-width="2" class="svg-elem-4"></path>
<path d="M419.498 550.484C421.35 551.562 424.786 551.394 426.975 550.13L552.556 477.614C553.55 477.042 554.139 476.334 554.139 475.711C554.105 475.442 553.988 475.173 553.819 474.954C553.651 474.735 553.432 474.549 553.162 474.448L426.352 401.242C424.499 400.164 421.064 400.333 418.875 401.596L293.294 474.112C292.3 474.684 291.711 475.391 291.711 476.015C291.744 476.284 291.862 476.553 292.031 476.772C292.199 476.991 292.418 477.16 292.687 477.278L419.498 550.484ZM422.697 553.179C421.249 553.212 419.801 552.875 418.521 552.202L291.711 478.995C291.138 478.726 290.666 478.305 290.313 477.783C289.976 477.261 289.774 476.655 289.74 476.031C289.74 474.667 290.683 473.354 292.3 472.411L417.881 399.895C420.693 398.278 424.853 398.109 427.329 399.541L554.139 472.748C554.712 473.017 555.183 473.438 555.537 473.96C555.874 474.482 556.076 475.088 556.109 475.728C556.109 477.092 555.166 478.406 553.55 479.349L427.969 551.865C426.352 552.758 424.533 553.212 422.697 553.195V553.179Z" fill="none" stroke="#1B69FF" stroke-width="2" class="svg-elem-5"></path>
<path d="M720.828 561.078C718.167 561.062 715.54 561.718 713.199 562.981L499.137 686.558C497.234 687.67 496.123 689.051 496.123 690.364C496.19 690.954 496.409 691.509 496.746 691.981C497.099 692.453 497.554 692.84 498.093 693.076L714.226 817.865C717.578 819.785 723.691 819.516 727.598 817.259L941.66 693.665C943.563 692.554 944.675 691.173 944.675 689.859C944.607 689.27 944.388 688.714 944.051 688.242C943.698 687.771 943.243 687.384 942.704 687.148L726.571 562.358C724.802 561.432 722.832 560.994 720.828 561.045V561.078ZM719.986 821.284C717.611 821.351 715.271 820.795 713.182 819.684L497.049 694.894C496.19 694.49 495.449 693.85 494.91 693.042C494.371 692.25 494.068 691.324 494.018 690.364C494.018 688.276 495.5 686.238 498.076 684.756L712.138 561.163C716.769 558.485 723.556 558.232 727.615 560.573L943.748 685.363C944.607 685.767 945.348 686.407 945.887 687.198C946.426 687.99 946.729 688.916 946.78 689.876C946.78 691.964 945.298 694.002 942.721 695.501L728.659 819.095C725.998 820.56 723.017 821.301 719.986 821.284Z" fill="none" stroke="#1B69FF" stroke-width="2" class="svg-elem-6"></path>
<path d="M994.674 871.417C996.324 872.781 997.284 874.802 997.284 876.941H998.244C998.244 874.515 997.166 872.208 995.28 870.676L994.674 871.417ZM1387.8 692.754C1389.18 691.036 1389.77 688.813 1389.45 686.64L1388.51 686.775C1388.8 688.695 1388.27 690.649 1387.06 692.164L1387.8 692.754ZM997.284 898.092C997.284 903.313 1002.15 907.203 1007.24 905.923L1007 904.997C1002.54 906.108 998.244 902.706 998.244 898.092H997.284ZM1380.44 652.235C1382.51 653.296 1383.95 655.283 1384.28 657.59L1385.23 657.456C1384.86 654.845 1383.22 652.589 1380.88 651.393L1380.44 652.252V652.235ZM1389.45 686.624L1385.23 657.456L1384.28 657.59L1388.51 686.758L1389.45 686.624ZM1374.97 707.439C1379.64 702.757 1384.97 696.273 1387.8 692.754L1387.06 692.164C1384.23 695.684 1378.93 702.134 1374.3 706.782L1374.97 707.456V707.439ZM1380.88 651.376L1100.67 508.449L1100.23 509.308L1380.44 652.235L1380.88 651.376ZM1007.24 905.923C1102.84 882.043 1263.96 818.924 1374.99 707.439L1374.31 706.765C1263.47 818.082 1102.54 881.134 1007.02 904.997L1007.25 905.923H1007.24ZM997.284 876.941V898.092H998.244V876.941H997.284ZM850.82 752.858L994.674 871.417L995.28 870.676L851.427 752.117L850.82 752.858Z" fill="none" stroke="#1B69FF" stroke-width="2" class="svg-elem-7"></path>
<path d="M57.6922 654.713C55.3345 655.926 53.7178 658.199 53.3642 660.826L54.3072 660.961C54.6272 658.654 56.0587 656.633 58.1301 655.572L57.6922 654.73V654.713ZM50.0802 684.521C49.7603 686.828 50.4002 689.119 51.9495 690.87L52.6737 690.23C51.3264 688.698 50.7539 686.677 51.0233 684.639L50.0802 684.504V684.521ZM489.959 910.557C489.723 915.154 485.328 918.405 480.899 917.226L480.646 918.152C485.682 919.499 490.633 915.811 490.902 910.608L489.942 910.557H489.959ZM381.438 890.988C420.458 902.035 462.475 913.319 480.646 918.152L480.899 917.226C462.728 912.393 420.71 901.109 381.707 890.062L381.455 890.988H381.438ZM166.837 794.929C191.727 810.675 232.482 831.035 273.438 849.273C314.395 867.529 355.604 883.679 381.438 890.988L381.69 890.062C355.924 882.77 314.765 866.637 273.826 848.398C232.886 830.16 192.182 809.816 167.342 794.104L166.837 794.912V794.929ZM493.31 885.885C493.344 885.734 493.479 885.464 493.765 885.043C494.035 884.622 494.405 884.117 494.893 883.494C495.853 882.264 497.201 880.665 498.902 878.745C502.287 874.905 507.036 869.803 512.677 863.891C523.961 852.052 538.831 836.929 553.634 822.042C568.437 807.138 583.189 792.47 594.237 781.524C599.76 776.05 604.358 771.503 607.575 768.337C609.191 766.754 610.454 765.508 611.313 764.649C611.751 764.228 612.071 763.908 612.29 763.689C612.408 763.571 612.492 763.504 612.543 763.437C612.576 763.403 612.593 763.386 612.61 763.369C612.61 763.369 612.61 763.369 612.273 763.033C611.936 762.696 611.936 762.696 611.936 762.696C611.936 762.696 611.903 762.729 611.869 762.763C611.818 762.814 611.734 762.898 611.616 763.016C611.397 763.235 611.061 763.555 610.64 763.976C609.781 764.818 608.518 766.064 606.901 767.664C603.684 770.847 599.087 775.377 593.563 780.85C582.516 791.796 567.763 806.481 552.96 821.369C538.157 836.273 523.287 851.395 511.987 863.234C506.345 869.162 501.596 874.265 498.194 878.122C496.493 880.042 495.129 881.659 494.152 882.922C493.664 883.545 493.277 884.083 492.99 884.538C492.704 884.976 492.502 885.346 492.418 885.65L493.344 885.902L493.31 885.885ZM490.885 910.624C491.104 906.347 491.424 901.227 491.828 896.647C492.233 892.049 492.721 888.024 493.294 885.885L492.367 885.633C491.778 887.872 491.273 891.982 490.869 896.562C490.464 901.16 490.144 906.279 489.926 910.574L490.885 910.624ZM51.9159 690.887C63.3844 703.905 117.157 763.538 166.82 794.946L167.325 794.137C117.797 762.814 64.1085 703.282 52.6232 690.264L51.899 690.904L51.9159 690.887ZM53.3305 660.843L50.0465 684.538L50.9896 684.673L54.2736 660.978L53.3305 660.843ZM341.205 508.957L57.6585 654.747L58.0964 655.589L341.643 509.799L341.205 508.957Z" fill="none" stroke="#1B69FF" stroke-width="2" class="svg-elem-8"></path>
<path d="M880.879 701.83C882.589 700.65 884.011 699.06 885.024 697.2C886.036 695.34 886.619 693.25 886.724 691.11C886.724 690.35 886.6 689.59 886.342 688.87C886.991 689.3 887.507 689.9 887.841 690.63C888.175 691.35 888.299 692.16 888.223 692.95C888.118 695.09 887.535 697.18 886.523 699.04C885.511 700.9 884.088 702.49 882.378 703.67C879.857 705.2 877.737 704.55 876.906 702.33C877.556 702.6 878.262 702.7 878.95 702.62C879.647 702.53 880.306 702.26 880.879 701.84V701.83Z" fill="#A0A6BA"/>
<path d="M755.286 642.78C753.176 641.63 751.189 640.23 749.375 638.62C747.665 637.15 746.118 635.48 744.791 633.63L746.816 629.48C747.981 631.09 749.299 632.57 750.75 633.89C752.135 635.19 753.672 636.31 755.315 637.22C756.432 637.97 757.741 638.37 759.068 638.37C759.813 638.31 760.281 637.67 760.281 636.68C760.262 635.9 760.004 635.14 759.565 634.51C759.04 633.72 758.419 633 757.722 632.37C756.977 631.68 755.964 630.81 754.685 629.78C753.052 628.47 751.447 627.05 749.862 625.54C748.573 624.27 747.484 622.8 746.644 621.17C745.746 619.48 745.278 617.57 745.297 615.63C745.211 614.16 745.641 612.7 746.51 611.53C746.978 611.02 747.551 610.63 748.191 610.39C748.831 610.15 749.509 610.06 750.177 610.14C752.288 610.34 754.322 611.02 756.165 612.13C757.874 613.06 759.488 614.17 760.988 615.43C762.497 616.68 763.881 618.09 765.113 619.64L763.27 623.93C761.284 621.41 758.858 619.29 756.127 617.7C755.029 616.95 753.739 616.58 752.421 616.64C751.676 616.76 751.218 617.46 751.228 618.49C751.285 619.66 751.782 620.75 752.612 621.54C753.93 622.9 755.344 624.16 756.833 625.31C758.467 626.62 760.08 628.04 761.656 629.55C762.936 630.81 764.025 632.27 764.875 633.87C765.782 635.55 766.24 637.44 766.221 639.37C766.307 640.83 765.868 642.27 764.989 643.41C764.512 643.92 763.929 644.31 763.289 644.54C762.649 644.78 761.962 644.86 761.284 644.78C759.173 644.57 757.12 643.88 755.286 642.78ZM730.686 614.99C731.278 615.41 731.946 615.71 732.643 615.85C733.35 616 734.066 615.99 734.773 615.85C735.279 615.55 735.69 615.09 735.938 614.54C736.186 613.99 736.272 613.37 736.167 612.76C736.177 611.09 735.69 609.47 734.763 608.11C733.703 606.58 732.3 605.36 730.676 604.55L725.815 601.92V612.37L730.676 615L730.686 614.99ZM731.02 599.04C733.226 600.21 735.231 601.75 736.969 603.59C738.593 605.29 739.901 607.29 740.856 609.47C741.754 611.52 742.212 613.75 742.212 616.01C742.327 617.81 741.85 619.59 740.847 621.06C740.369 621.64 739.777 622.1 739.099 622.39C738.421 622.68 737.695 622.8 736.96 622.74C734.868 622.58 732.834 621.93 731.01 620.84L725.815 618.03V626.33L719.846 623.1V593L731.01 599.03L731.02 599.04ZM717.726 591.85L706.572 615.92L700.679 612.73L689.554 576.61L696 580.09L703.85 605.83L711.805 588.63L717.736 591.84L717.726 591.85Z" fill="#333C5E"/>
<path fill-rule="evenodd" clip-rule="evenodd" d="M443.288 449.42L435.543 444.73L435.734 444.86L435.925 444.98L443.68 449.67L443.479 449.54L443.288 449.42Z" fill="#333C5E"/>
<path fill-rule="evenodd" clip-rule="evenodd" d="M475.968 391.1L468.223 386.42L468.023 386.3L467.822 386.19L475.567 390.88L475.768 390.99L475.968 391.1Z" fill="#333C5E"/>
<path fill-rule="evenodd" clip-rule="evenodd" d="M452.342 371.57C454.223 370.57 456.314 370.05 458.425 370.05C460.535 370.05 462.627 370.57 464.508 371.57C467.87 373.6 467.87 376.9 464.508 378.93C462.617 379.93 460.535 380.45 458.425 380.45C456.314 380.45 454.223 379.93 452.342 378.93C448.98 376.9 448.98 373.6 452.342 371.57Z" fill="#F2F5FC"/>
<path d="M1020.43 883.99C1022.08 885.41 1023.04 887.54 1023.04 889.78H1023.99C1023.99 887.24 1022.92 884.84 1021.04 883.22L1020.43 883.99ZM1413.43 696.98C1414.82 695.18 1415.39 692.86 1415.08 690.58L1414.13 690.72C1414.41 692.73 1413.9 694.77 1412.69 696.36L1413.43 696.99V696.98ZM1023.05 911.92C1023.05 917.39 1027.91 921.45 1032.99 920.12L1032.76 919.15C1028.29 920.32 1024 916.75 1024 911.92H1023.05ZM1406.08 654.57C1408.15 655.68 1409.59 657.77 1409.91 660.18L1410.86 660.04C1410.47 657.31 1408.86 654.94 1406.51 653.69L1406.08 654.58V654.57ZM1415.08 690.57L1410.86 660.03L1409.91 660.17L1414.13 690.71L1415.08 690.57ZM1400.61 712.36C1405.27 707.46 1410.61 700.67 1413.43 696.98L1412.69 696.35C1409.86 700.04 1404.55 706.79 1399.93 711.65L1400.61 712.36ZM1406.51 653.68L1126.4 504.06L1125.97 504.95L1406.08 654.57L1406.51 653.68ZM1032.99 920.12C1128.57 895.12 1289.63 829.05 1400.61 712.36L1399.93 711.65C1289.12 828.16 1128.24 894.17 1032.76 919.15L1032.99 920.12ZM1023.05 889.78V911.92H1024V889.78H1023.05ZM876.629 759.89L1020.44 883.99L1021.05 883.22L877.24 759.12L876.629 759.89Z" fill="#4C73CC"/>
<path d="M83.7687 657.15C81.4194 658.42 79.8054 660.8 79.4425 663.54L80.388 663.68C80.7127 661.26 82.1356 659.16 84.208 658.04L83.7687 657.15ZM76.1573 688.35C75.8422 690.76 76.482 693.16 78.0291 695L78.7454 694.34C77.3893 692.73 76.8163 690.63 77.1028 688.49L76.1573 688.35ZM515.887 924.96C515.639 929.78 511.265 933.18 506.824 931.94L506.576 932.91C511.609 934.32 516.556 930.45 516.833 925.02L515.878 924.97L515.887 924.96ZM407.409 904.47C446.411 916.04 488.421 927.84 506.585 932.91L506.834 931.94C488.679 926.87 446.669 915.07 407.676 903.51L407.418 904.47H407.409ZM192.887 803.91C217.774 820.39 258.505 841.7 299.446 860.81C340.387 879.91 381.585 896.82 407.409 904.47L407.667 903.51C381.92 895.87 340.769 878.99 299.837 859.89C258.906 840.79 218.223 819.5 193.393 803.06L192.887 803.9V803.91ZM519.258 899.12C519.296 898.97 519.43 898.68 519.707 898.23C519.974 897.8 520.347 897.26 520.824 896.61C521.779 895.32 523.136 893.65 524.826 891.64C528.216 887.62 532.953 882.28 538.597 876.09C549.876 863.7 564.735 847.87 579.538 832.28C594.34 816.69 609.086 801.33 620.125 789.87C625.645 784.14 630.239 779.38 633.457 776.06C635.062 774.4 636.332 773.1 637.191 772.21C637.621 771.77 637.955 771.43 638.175 771.2C638.289 771.09 638.366 771 638.423 770.94C638.452 770.91 638.471 770.89 638.49 770.87C638.49 770.87 638.5 770.86 638.509 770.85C638.509 770.85 638.509 770.85 638.175 770.49C637.841 770.13 637.841 770.13 637.841 770.14C637.841 770.14 637.841 770.14 637.822 770.16C637.812 770.17 637.783 770.2 637.755 770.23C637.697 770.29 637.611 770.38 637.506 770.49C637.287 770.72 636.952 771.06 636.523 771.5C635.663 772.39 634.403 773.69 632.789 775.35C629.57 778.67 624.977 783.43 619.457 789.16C608.417 800.62 593.672 815.98 578.869 831.58C564.067 847.17 549.198 863.01 537.919 875.41C532.275 881.61 527.529 886.96 524.129 890.99C522.429 893.01 521.063 894.7 520.089 896.01C519.602 896.66 519.211 897.23 518.924 897.7C518.647 898.15 518.437 898.55 518.351 898.87L519.277 899.13L519.258 899.12ZM516.842 925.02C517.071 920.54 517.386 915.19 517.788 910.39C518.198 905.58 518.685 901.36 519.258 899.12L518.332 898.86C517.74 901.2 517.234 905.5 516.833 910.3C516.422 915.11 516.107 920.47 515.887 924.96L516.842 925.01V925.02ZM78.0291 695C89.4891 708.62 143.246 771.04 192.887 803.92L193.393 803.08C143.876 770.29 90.2054 707.98 78.7358 694.34L78.0196 695H78.0291ZM79.4425 663.54L76.1573 688.35L77.1028 688.49L80.388 663.68L79.4425 663.54ZM367.222 504.55L83.7782 657.15L84.2175 658.04L367.662 505.44L367.222 504.55Z" fill="#4C73CC"/>
<path d="M372.608 475.03H372.637C372.78 477.12 374.289 479.29 377.126 481L440.92 519.58C446.382 522.88 454.633 523.24 459.361 520.38L525.81 480.22C527.758 479.31 528.999 477.28 528.971 475.05H528.98V451.88H496.042L460.688 430.5C455.216 427.2 446.974 426.85 442.247 429.7L405.565 451.88H372.608V475.04V475.03Z" fill="url(#paint0_linear_855_4638)"/>
<path d="M440.92 497.4L377.126 458.84C371.673 455.54 371.081 450.55 375.798 447.7L442.247 407.54C446.975 404.68 455.226 405.04 460.679 408.34L524.473 446.91C529.935 450.21 530.518 455.19 525.8 458.05L459.361 498.21C454.624 501.06 446.373 500.7 440.92 497.4Z" fill="#F2F5FC"/>
<path fill-rule="evenodd" clip-rule="evenodd" d="M475.528 384.1C477.982 385.2 480.198 386.82 482.013 388.87L483.856 385.87C485.594 383.29 479.071 378.8 477.677 380.59L475.519 384.1H475.528Z" fill="#0064C8"/>
<path fill-rule="evenodd" clip-rule="evenodd" d="M443.374 450.41L435.629 445.73L435.829 445.85L436.03 445.96L436.231 446.07L436.441 446.17L436.651 446.27L436.861 446.37L437.071 446.46L437.291 446.55L437.51 446.63L437.73 446.71L437.95 446.78L438.169 446.85L438.398 446.91L438.628 446.97L438.857 447.02L439.086 447.07L439.325 447.12L439.564 447.16L439.802 447.2L440.041 447.23L440.28 447.26L440.519 447.28L440.767 447.3H441.015L441.263 447.32H442.018L442.276 447.3L442.534 447.28L442.791 447.26L443.049 447.23L443.298 447.2L443.555 447.17L443.813 447.13L444.071 447.09L444.329 447.04L444.587 446.99L444.845 446.93L445.102 446.87L445.37 446.8L445.637 446.73L445.905 446.66L446.172 446.58L446.44 446.5L446.707 446.41L446.974 446.32L447.251 446.22L447.528 446.12L447.805 446.01L448.082 445.9L448.359 445.78L448.636 445.66L448.913 445.54L449.19 445.41L449.476 445.27L449.763 445.13L450.049 444.99L450.336 444.84L450.622 444.69L450.909 444.53L451.195 444.37L451.482 444.2L451.768 444.03L452.055 443.85L452.341 443.67L452.628 443.49L452.914 443.3L453.201 443.11L453.487 442.91L453.774 442.71L454.06 442.51L454.347 442.3L454.624 442.09L454.901 441.88L455.178 441.66L455.455 441.44L455.732 441.22L456.009 440.99L456.286 440.76L456.562 440.53L456.83 440.29L457.097 440.05L457.365 439.81L457.632 439.56L457.9 439.31L458.167 439.06L458.434 438.8L458.692 438.54L458.95 438.28L459.208 438.02L459.466 437.75L459.724 437.48L459.981 437.21L460.239 436.93L460.488 436.65L460.745 436.36L461.003 436.07L461.261 435.77L461.519 435.47L461.777 435.17L462.025 434.87L462.273 434.56L462.522 434.25L462.77 433.94L463.018 433.63L463.257 433.31L463.496 432.99L463.735 432.67L463.973 432.35L464.212 432.02L464.451 431.69L464.68 431.36L464.909 431.03L465.138 430.7L465.368 430.36L465.587 430.02L465.807 429.68L466.027 429.34L466.246 429L466.466 428.65L466.676 428.3L466.886 427.95L467.096 427.6L467.306 427.25L467.507 426.9L467.707 426.54L467.908 426.18L468.108 425.82L468.299 425.46L468.49 425.1L468.681 424.74L468.872 424.38L469.054 424.02L469.235 423.65L469.417 423.28L469.598 422.91L469.77 422.54L469.942 422.17L470.114 421.8L470.276 421.43L470.439 421.06L470.601 420.68L470.763 420.3L470.916 419.92L471.069 419.54L471.222 419.16L471.365 418.78L471.508 418.4L471.652 418.02L471.785 417.64L471.919 417.26L472.053 416.88L472.177 416.5L472.301 416.12L472.425 415.74L472.54 415.36L472.654 414.98L472.769 414.6L472.874 414.22L472.979 413.85L473.074 413.48L473.17 413.11L473.265 412.74L473.361 412.37L473.447 412L473.533 411.63L473.619 411.26L473.695 410.89L473.772 410.52L473.848 410.15L473.915 409.78L473.982 409.41L474.049 409.05L474.106 408.69L474.163 408.33L474.22 407.97L474.268 407.61L474.316 407.25L474.354 406.89L474.392 406.53L474.431 406.17L474.459 405.81L474.488 405.45L474.517 405.09L474.536 404.73L474.555 404.37L474.574 404.01V403.66L474.593 403.31V402.96V402.61V401.91L474.583 401.57V401.23L474.555 400.89L474.536 400.56L474.517 400.23L474.488 399.9L474.459 399.58L474.431 399.26L474.392 398.94L474.354 398.63L474.316 398.32L474.268 398.01L474.22 397.71L474.163 397.41L474.106 397.11L474.049 396.82L473.982 396.53L473.915 396.24L473.848 395.96L473.772 395.68L473.695 395.4L473.619 395.13L473.533 394.86L473.447 394.59L473.361 394.33L473.265 394.07L473.17 393.82L473.074 393.57L472.979 393.32L472.874 393.08L472.769 392.83L472.654 392.59L472.54 392.35L472.425 392.11L472.301 391.88L472.177 391.65L472.053 391.43L471.919 391.21L471.785 390.99L471.652 390.78L471.508 390.57L471.365 390.36L471.222 390.16L471.069 389.96L470.916 389.77L470.763 389.58L470.601 389.4L470.439 389.22L470.276 389.04L470.114 388.87L469.942 388.7L469.77 388.54L469.598 388.38L469.417 388.22L469.235 388.07L469.054 387.92L468.872 387.78L468.681 387.64L468.49 387.51L468.299 387.38L468.108 387.25L467.908 387.13L475.653 391.81L475.854 391.93L476.044 392.06L476.235 392.19L476.427 392.32L476.618 392.46L476.799 392.6L476.98 392.75L477.162 392.9L477.343 393.06L477.515 393.22L477.687 393.38L477.859 393.55L478.021 393.72L478.184 393.9L478.346 394.08L478.508 394.26L478.661 394.45L478.814 394.64L478.967 394.84L479.11 395.04L479.253 395.25L479.397 395.46L479.53 395.67L479.664 395.89L479.798 396.11L479.931 396.33L480.055 396.56L480.18 396.79L480.294 397.03L480.409 397.27L480.523 397.51L480.629 397.76L480.734 398L480.829 398.25L480.925 398.5L481.02 398.75L481.116 399.01L481.202 399.27L481.287 399.54L481.373 399.81L481.45 400.08L481.526 400.36L481.603 400.64L481.669 400.92L481.736 401.21L481.803 401.5L481.86 401.79L481.918 402.09L481.975 402.39L482.023 402.69L482.071 403L482.109 403.31L482.147 403.62L482.185 403.94L482.214 404.26L482.242 404.58L482.271 404.91L482.29 405.24L482.309 405.57L482.328 405.91V406.25L482.348 406.59V406.94V407.29V408L482.338 408.35V408.7L482.309 409.06L482.29 409.42L482.271 409.78L482.242 410.14L482.214 410.5L482.185 410.86L482.147 411.22L482.109 411.58L482.071 411.94L482.023 412.3L481.975 412.66L481.918 413.02L481.86 413.38L481.803 413.74L481.736 414.1L481.669 414.47L481.603 414.84L481.526 415.21L481.45 415.58L481.373 415.95L481.287 416.32L481.202 416.69L481.116 417.06L481.02 417.43L480.925 417.8L480.829 418.17L480.734 418.54L480.629 418.91L480.523 419.29L480.409 419.67L480.294 420.05L480.18 420.43L480.055 420.81L479.931 421.19L479.798 421.57L479.664 421.95L479.53 422.33L479.397 422.71L479.253 423.09L479.11 423.47L478.967 423.85L478.814 424.23L478.661 424.61L478.508 424.99L478.346 425.37L478.184 425.74L478.021 426.11L477.859 426.48L477.687 426.85L477.515 427.22L477.343 427.59L477.162 427.96L476.98 428.33L476.799 428.7L476.618 429.06L476.427 429.42L476.235 429.78L476.044 430.14L475.854 430.5L475.653 430.86L475.452 431.22L475.252 431.58L475.051 431.93L474.841 432.28L474.631 432.63L474.421 432.98L474.211 433.33L473.991 433.68L473.772 434.02L473.552 434.36L473.332 434.7L473.113 435.04L472.883 435.38L472.654 435.71L472.425 436.04L472.196 436.37L471.957 436.7L471.718 437.03L471.48 437.35L471.241 437.67L471.002 437.99L470.763 438.31L470.515 438.62L470.267 438.93L470.018 439.24L469.77 439.55L469.522 439.85L469.264 440.15L469.006 440.45L468.748 440.75L468.49 441.04L468.233 441.33L467.984 441.61L467.726 441.89L467.469 442.16L467.211 442.43L466.953 442.7L466.695 442.96L466.437 443.22L466.179 443.48L465.912 443.74L465.645 443.99L465.377 444.24L465.11 444.49L464.842 444.73L464.575 444.97L464.308 445.21L464.031 445.44L463.754 445.67L463.477 445.9L463.2 446.12L462.923 446.34L462.646 446.56L462.369 446.77L462.092 446.98L461.805 447.19L461.519 447.39L461.232 447.59L460.946 447.79L460.659 447.98L460.373 448.17L460.086 448.35L459.8 448.53L459.513 448.71L459.227 448.88L458.94 449.05L458.654 449.21L458.367 449.37L458.081 449.52L457.794 449.67L457.508 449.81L457.221 449.95L456.935 450.08L456.658 450.21L456.381 450.33L456.104 450.45L455.827 450.57L455.55 450.68L455.273 450.79L454.996 450.89L454.719 450.99L454.452 451.08L454.185 451.17L453.917 451.25L453.65 451.33L453.382 451.4L453.115 451.47L452.848 451.54L452.59 451.6L452.332 451.66L452.074 451.71L451.816 451.76L451.558 451.8L451.3 451.84L451.043 451.87L450.794 451.9L450.536 451.93L450.279 451.95L450.021 451.97H449.763L449.505 451.99H448.751L448.502 451.97L448.254 451.95L448.015 451.93L447.777 451.9L447.538 451.87L447.299 451.83L447.06 451.79L446.822 451.74L446.592 451.69L446.363 451.64L446.134 451.58L445.905 451.52L445.685 451.45L445.465 451.38L445.246 451.3L445.026 451.22L444.806 451.13L444.596 451.04L444.386 450.94L444.176 450.84L443.966 450.74L443.765 450.63L443.565 450.52L443.364 450.4L443.374 450.41Z" fill="url(#paint1_linear_855_4638)"/>
<path fill-rule="evenodd" clip-rule="evenodd" d="M457.088 392.39C444.634 399.92 434.54 418.22 434.54 433.28C434.54 448.34 444.634 454.44 457.088 446.91C469.541 439.38 479.635 421.08 479.635 406.02C479.635 390.96 469.541 384.86 457.088 392.39Z" fill="#1983DB"/>
<path fill-rule="evenodd" clip-rule="evenodd" d="M451.778 382.71L452.494 382.29L453.21 381.89L453.917 381.51L454.623 381.16L455.321 380.83L456.018 380.53L456.705 380.25L457.393 379.99L458.071 379.76L458.74 379.55L459.408 379.37L460.067 379.21L460.716 379.07L461.366 378.96L462.006 378.87L462.636 378.8L463.257 378.75L463.868 378.72H464.479L465.071 378.74L465.663 378.78L466.246 378.84L466.819 378.93L467.382 379.04L467.936 379.17L468.481 379.32L469.015 379.49L469.541 379.68L470.056 379.89L470.553 380.12L471.04 380.38L478.785 385.06L478.298 384.8L477.801 384.57L477.286 384.36L476.76 384.17L476.226 384L475.681 383.85L475.127 383.72L474.564 383.61L473.991 383.52L473.408 383.46L472.816 383.42L472.224 383.4H471.613L471.002 383.43L470.381 383.48L469.751 383.55L469.111 383.64L468.461 383.75L467.812 383.89L467.153 384.05L466.485 384.23L465.816 384.44L465.138 384.67L464.45 384.93L463.763 385.21L463.066 385.51L462.369 385.84L461.662 386.19L460.955 386.57L460.239 386.97L459.523 387.39L458.806 387.84L458.09 388.31L457.383 388.79L456.677 389.29L455.98 389.81L455.282 390.35L454.595 390.9C454.595 390.9 454.251 391.18 453.907 391.47C453.563 391.76 453.229 392.06 453.229 392.06L452.561 392.66L451.892 393.28L451.233 393.92L450.584 394.57L449.934 395.23L449.295 395.91L448.664 396.6L448.044 397.3L447.432 398.02L446.831 398.75L446.239 399.49L445.647 400.24L445.064 401.01L444.491 401.79L443.928 402.58L443.374 403.38L442.829 404.19L442.294 405.01L441.769 405.83L441.253 406.66L440.757 407.5L440.27 408.35L439.792 409.2L439.324 410.06L438.866 410.93L438.417 411.8L437.987 412.68L437.567 413.57L437.157 414.46L436.765 415.36L436.383 416.26L436.011 417.16L435.657 418.07L435.313 418.98L434.989 419.89L434.674 420.8L434.378 421.71L434.091 422.63L433.824 423.55L433.566 424.47L433.327 425.39L433.098 426.31L432.888 427.23L432.687 428.14L432.506 429.05L432.343 429.96L432.2 430.87L432.066 431.78L431.952 432.68L431.856 433.58L431.78 434.48L431.723 435.37L431.675 436.26L431.646 437.14V438.02V438.88L431.675 439.73L431.723 440.56L431.78 441.38L431.856 442.18L431.952 442.96L432.066 443.73L432.2 444.48L432.343 445.21L432.506 445.92L432.687 446.62L432.888 447.3L433.098 447.96L433.327 448.6L433.566 449.22L433.824 449.83L434.091 450.42L434.378 450.99L434.674 451.54L434.989 452.07L435.313 452.58L435.657 453.07L436.011 453.54L436.383 454L436.765 454.44L437.157 454.86L437.567 455.26L437.987 455.64L438.417 456L438.866 456.34L439.324 456.66L431.579 451.98L431.121 451.66L430.672 451.32L430.242 450.96L429.822 450.58L429.412 450.18L429.02 449.76L428.638 449.32L428.266 448.86L427.912 448.39L427.568 447.9L427.244 447.39L426.928 446.86L426.632 446.31L426.346 445.74L426.079 445.15L425.821 444.54L425.582 443.92L425.353 443.28L425.143 442.62L424.942 441.94L424.761 441.24L424.598 440.53L424.455 439.8L424.321 439.05L424.207 438.28L424.111 437.5L424.035 436.7L423.968 435.88L423.92 435.05L423.892 434.2V433.34V432.46L423.92 431.58L423.968 430.69L424.035 429.8L424.111 428.9L424.207 428L424.321 427.1L424.455 426.19L424.598 425.28L424.761 424.37L424.942 423.46L425.143 422.55L425.353 421.63L425.582 420.71L425.821 419.79L426.079 418.87L426.346 417.95L426.632 417.03L426.928 416.12L427.244 415.21L427.568 414.3L427.912 413.39L428.266 412.48L428.638 411.58L429.02 410.68L429.412 409.79L429.822 408.9L430.242 408.01L430.672 407.13L431.121 406.26L431.579 405.39L432.047 404.53L432.525 403.68L433.012 402.83L433.508 401.99L434.024 401.16L434.549 400.34L435.084 399.52L435.629 398.71L436.182 397.91L436.746 397.12L437.319 396.34L437.901 395.57L438.494 394.82L439.086 394.08L439.687 393.35L440.298 392.63L440.919 391.93L441.55 391.24L442.189 390.56L442.839 389.9L443.488 389.25L444.147 388.61L444.816 387.99L445.484 387.39L446.162 386.8L446.85 386.23L447.537 385.68L448.235 385.14L448.932 384.62L449.638 384.12L450.345 383.64L451.061 383.17L451.787 382.72L451.778 382.71Z" fill="url(#paint2_linear_855_4638)"/>
<path fill-rule="evenodd" clip-rule="evenodd" d="M442.991 450.16L435.246 445.48L435.437 445.61L435.638 445.73L443.383 450.41L443.182 450.29L442.991 450.16Z" fill="#333C5E"/>
<path fill-rule="evenodd" clip-rule="evenodd" d="M475.672 391.85L467.927 387.17L467.726 387.05L467.525 386.94L475.27 391.62L475.471 391.73L475.672 391.85Z" fill="#333C5E"/>
<path fill-rule="evenodd" clip-rule="evenodd" d="M439.792 409.2C444.844 400.04 451.815 392.05 459.522 387.39C467.229 382.73 474.201 382.29 479.253 385.35C484.305 388.41 487.427 394.95 487.427 404.26C487.427 413.57 484.305 423.9 479.253 433.05C474.201 442.2 467.229 450.2 459.522 454.86C451.815 459.52 444.844 459.96 439.792 456.9C434.74 453.84 431.617 447.3 431.617 437.99C431.617 428.68 434.74 418.35 439.792 409.2ZM475.662 391.85C473.408 390.54 470.81 390.01 468.251 390.33C465.157 390.74 462.177 391.82 459.513 393.52C456.285 395.53 453.343 398.01 450.784 400.89C445.083 407.28 440.842 414.96 438.417 423.33C437.309 427.09 436.726 431 436.688 434.93C436.612 438.19 437.204 441.44 438.417 444.45C440.422 449.61 445.512 452.7 450.784 451.93C453.878 451.53 456.858 450.44 459.513 448.74C462.75 446.73 465.692 444.25 468.251 441.37C473.952 434.98 478.183 427.3 480.618 418.94C481.726 415.18 482.309 411.27 482.347 407.34C482.423 404.08 481.831 400.83 480.618 397.83C479.606 395.34 477.868 393.26 475.662 391.87V391.85Z" fill="#F2F5FC" stroke="#F2F5FC"/>
<path d="M471.713 396.542L455.105 426.662L455.701 427.022L472.308 396.902L471.713 396.542Z" fill="#C9C9C9"/>
<path fill-rule="evenodd" clip-rule="evenodd" d="M456.887 427.76L455.693 427.04L463.343 413.16L472.301 396.92L473.485 397.64L470.505 403.05L456.887 427.76Z" fill="#EAEAEA"/>
<path fill-rule="evenodd" clip-rule="evenodd" d="M446.993 426.52C447.633 426.14 448.149 426.45 448.149 427.22C448.101 428.07 447.671 428.85 446.993 429.31L441.149 432.85C440.509 433.23 439.993 432.92 439.993 432.15C440.041 431.3 440.471 430.52 441.149 430.06L446.993 426.52ZM470.391 415.17C469.751 415.55 469.235 415.24 469.235 414.47C469.283 413.62 469.713 412.84 470.391 412.38L476.235 408.84C476.875 408.46 477.391 408.77 477.391 409.54C477.343 410.39 476.913 411.17 476.235 411.63L470.391 415.17ZM457.537 435.69C457.584 434.84 458.014 434.06 458.692 433.6C459.332 433.22 459.848 433.53 459.848 434.3V441.37C459.8 442.22 459.37 443 458.692 443.46C458.052 443.84 457.537 443.53 457.537 442.76V435.69ZM459.848 406.01C459.8 406.86 459.38 407.64 458.692 408.1C458.052 408.48 457.537 408.17 457.537 407.4V400.33C457.584 399.48 458.014 398.7 458.692 398.24C459.332 397.86 459.848 398.17 459.848 398.94V406.01Z" fill="#EAEAEA"/>
<path fill-rule="evenodd" clip-rule="evenodd" d="M462.101 381.03V383.61L462.082 383.72L462.053 383.83L462.015 383.94L461.967 384.05L461.91 384.16L461.843 384.27L461.767 384.38L461.681 384.49L461.585 384.59L461.48 384.69L461.366 384.79L461.241 384.89L461.108 384.98L460.964 385.07L460.812 385.16L460.659 385.24L460.496 385.32L460.334 385.39L460.162 385.45L459.99 385.51L459.818 385.56L459.637 385.61L459.456 385.65L459.274 385.69L459.083 385.72L458.892 385.75L458.701 385.77H458.51L458.319 385.79H457.746L457.555 385.77L457.364 385.75L457.173 385.72L456.982 385.69L456.801 385.65L456.619 385.61L456.438 385.56L456.266 385.51L456.094 385.45L455.922 385.39L455.76 385.32L455.597 385.24L455.445 385.16L455.292 385.07L455.148 384.98L455.015 384.89L454.891 384.79L454.776 384.69L454.671 384.59L454.575 384.49L454.49 384.38L454.413 384.27L454.346 384.16L454.289 384.05L454.241 383.94L454.203 383.83L454.174 383.72L454.155 383.61V381.03L454.174 381.14L454.203 381.25L454.241 381.36L454.289 381.47L454.346 381.58L454.413 381.69L454.49 381.8L454.575 381.91L454.671 382.01L454.776 382.11L454.891 382.21L455.015 382.31L455.148 382.4L455.292 382.49L455.445 382.58L455.597 382.66L455.76 382.74L455.922 382.81L456.094 382.87L456.266 382.93L456.438 382.98L456.619 383.03L456.801 383.07L456.982 383.11L457.173 383.14L457.364 383.17L457.555 383.19H457.746L457.937 383.21H458.51L458.701 383.19L458.892 383.17L459.083 383.14L459.274 383.11L459.456 383.07L459.637 383.03L459.818 382.98L459.99 382.93L460.162 382.87L460.334 382.81L460.496 382.74L460.659 382.66L460.812 382.58L460.964 382.49L461.108 382.4L461.241 382.31L461.366 382.21L461.48 382.11L461.585 382.01L461.681 381.91L461.767 381.8L461.843 381.69L461.91 381.58L461.967 381.47L462.015 381.36L462.053 381.25L462.082 381.14L462.101 381.03Z" fill="url(#paint3_linear_855_4638)"/>
<path fill-rule="evenodd" clip-rule="evenodd" d="M466.695 376.49V378.8L466.647 379.05L466.58 379.3L466.495 379.54L466.389 379.78L466.265 380.02L466.113 380.26L465.941 380.49L465.75 380.72L465.54 380.94L465.31 381.16L465.062 381.37L464.795 381.58L464.508 381.78L464.203 381.97L463.878 382.15L463.544 382.32L463.2 382.48L462.846 382.63L462.484 382.77L462.111 382.89L461.729 383L461.347 383.1L460.956 383.19L460.554 383.27L460.153 383.34L459.752 383.39L459.342 383.43L458.931 383.46L458.52 383.48H458.11H457.699L457.288 383.46L456.878 383.43L456.467 383.39L456.056 383.34L455.655 383.27L455.254 383.19L454.863 383.1L454.481 383L454.099 382.89L453.726 382.77L453.363 382.63L453.01 382.48L452.666 382.32L452.332 382.15L452.007 381.97L451.702 381.78L451.415 381.58L451.148 381.37L450.899 381.16L450.67 380.94L450.46 380.72L450.269 380.49L450.097 380.26L449.944 380.02L449.82 379.78L449.715 379.54L449.629 379.3L449.562 379.05L449.515 378.8V376.49L449.562 376.74L449.629 376.99L449.715 377.23L449.82 377.47L449.944 377.71L450.097 377.95L450.269 378.18L450.46 378.41L450.67 378.63L450.899 378.85L451.148 379.06L451.415 379.27L451.702 379.47L452.007 379.66L452.332 379.84L452.666 380.01L453.01 380.17L453.363 380.32L453.726 380.46L454.099 380.58L454.481 380.69L454.863 380.79L455.254 380.88L455.655 380.96L456.056 381.03L456.467 381.08L456.878 381.12L457.288 381.15L457.699 381.17H458.11H458.52L458.931 381.15L459.342 381.12L459.752 381.08L460.153 381.03L460.554 380.96L460.956 380.88L461.347 380.79L461.729 380.69L462.111 380.58L462.484 380.46L462.846 380.32L463.2 380.17L463.544 380.01L463.878 379.84L464.203 379.66L464.508 379.47L464.795 379.27L465.062 379.06L465.31 378.85L465.54 378.63L465.75 378.41L465.941 378.18L466.113 377.95L466.256 377.71L466.38 377.47L466.485 377.23L466.571 376.99L466.638 376.74L466.686 376.5L466.695 376.49Z" fill="url(#paint4_linear_855_4638)"/>
<path fill-rule="evenodd" clip-rule="evenodd" d="M452.036 372.31C455.865 370.28 460.383 370.28 464.212 372.31C467.574 374.34 467.574 377.64 464.212 379.67C460.383 381.7 455.865 381.7 452.036 379.67C448.674 377.64 448.674 374.34 452.036 372.31Z" fill="#F2F5FC" stroke="#F2F5FC"/>
<path opacity="0.75" d="M408.621 253.23L443.44 229.26C447.451 226.5 452.656 226.5 456.658 229.27L491.219 253.17C494.571 255.49 496.596 259.42 496.596 263.63V447.45C496.596 451.84 494.409 455.9 490.818 458.17L456.027 480.23C453.449 482.08 450.059 482.09 447.471 480.26L409.366 458.04C405.565 455.83 403.216 451.64 403.216 447.09V263.7C403.216 259.48 405.25 255.55 408.612 253.23H408.621Z" fill="url(#paint5_linear_855_4638)"/>
<path d="M915.029 702L758.094 797.91C751.409 802.09 743.072 802.09 736.387 797.91L577.055 700.57C574.228 698.68 572.557 695.38 572.652 691.87V641.48L734.811 569.55C741.181 566.48 748.496 566.39 754.924 569.3L919.403 642.9V693.3C919.499 696.8 917.837 700.1 915.02 702H915.029Z" fill="url(#paint6_linear_855_4638)"/>
<path d="M918.095 645.66L758.104 743.46C751.448 747.62 743.149 747.62 736.492 743.46L574.801 644.66C573.206 643.54 572.614 641.38 573.397 639.54C573.674 638.83 574.171 638.23 574.801 637.83L734.84 540.02C741.477 535.88 749.748 535.88 756.375 540.02L918.105 638.85C919.699 639.97 920.292 642.13 919.508 643.96C919.231 644.67 918.735 645.27 918.105 645.67L918.095 645.66Z" fill="#F2F5FC"/>
<path d="M878.606 648.21L763.318 718.68C755.306 723.68 745.326 723.68 737.314 718.68L613.469 643C611.607 641.7 610.919 639.19 611.836 637.05C612.161 636.22 612.734 635.51 613.469 635.05L730.753 563.36C737.524 559.13 745.975 559.13 752.746 563.36L878.606 640.26C880.459 641.57 881.146 644.08 880.239 646.22C879.914 647.05 879.341 647.75 878.606 648.21Z" fill="#333C5E"/>
<path d="M878.711 648.36L866.84 655.42L752.756 585.71C745.976 581.48 737.533 581.48 730.763 585.71L625.073 650.34L613.469 643.01C611.617 641.71 610.92 639.2 611.836 637.06C612.113 636.24 612.658 635.54 613.355 635.07L730.772 562.91C737.619 558.72 746.1 558.78 752.89 563.05L878.826 640.27C880.669 641.63 881.328 644.17 880.401 646.32C880.048 647.17 879.456 647.88 878.692 648.35L878.711 648.36Z" fill="#E0E3ED"/>
<path d="M894.755 688C894.755 691.95 897.372 693.54 900.599 691.57C904.066 689.17 906.234 685.2 906.444 680.85C906.444 676.9 903.827 675.31 900.599 677.28C897.133 679.68 894.965 683.65 894.755 688Z" fill="url(#paint7_linear_855_4638)"/>
<path d="M899.1 689.74C902.567 687.35 904.744 683.37 904.954 679.02C904.954 678.26 904.83 677.5 904.572 676.78C905.9 677.65 906.626 679.23 906.454 680.85C906.244 685.19 904.076 689.17 900.609 691.57C898.088 693.11 895.968 692.46 895.146 690.24C896.464 690.8 897.954 690.61 899.11 689.74H899.1Z" fill="#A0A6BA"/>
<path d="M875.168 699.65C875.168 703.6 877.785 705.2 881.013 703.23C884.479 700.83 886.647 696.86 886.857 692.51C886.857 688.56 884.241 686.96 881.013 688.93C877.546 691.33 875.378 695.3 875.168 699.65Z" fill="url(#paint8_linear_855_4638)"/>
<path d="M879.514 701.4C882.98 699 885.148 695.02 885.358 690.68C885.358 689.92 885.234 689.16 884.976 688.44C886.304 689.31 887.03 690.89 886.858 692.52C886.648 696.86 884.47 700.84 881.013 703.24C878.492 704.77 876.372 704.12 875.541 701.9C876.859 702.46 878.358 702.27 879.514 701.4Z" fill="#A0A6BA"/>
<path d="M746.443 694.32C726.885 694.32 708.52 690.48 694.711 683.54C680.605 676.44 672.517 666.83 672.517 657.17C672.517 653.99 672.574 649.77 672.574 649.77C672.574 649.77 726.894 620.02 746.443 620.02C765.992 620.02 820.36 651.73 820.36 651.73C820.36 651.73 820.37 655.19 820.37 657.17C820.37 666.83 812.281 676.44 798.175 683.54C784.376 690.49 765.992 694.33 746.443 694.33V694.32Z" fill="#3A456E"/>
<path d="M746.443 689.99C726.885 689.99 708.52 686.17 694.711 679.22C680.605 672.12 672.517 662.51 672.517 652.85C672.517 643.19 680.605 633.58 694.711 626.48C708.52 619.53 726.894 615.7 746.443 615.7C765.992 615.7 784.366 619.53 798.175 626.48C812.281 633.58 820.37 643.19 820.37 652.86C820.37 662.53 812.281 672.13 798.175 679.23C784.366 686.18 765.992 690 746.443 690V689.99Z" fill="#5F6C9C"/>
<path d="M746.444 683.47C704.557 683.47 678.849 664.63 678.849 651.12C678.849 637.61 704.557 618.75 746.444 618.75C788.33 618.75 814.038 637.6 814.038 651.12C814.038 664.64 788.32 683.47 746.444 683.47Z" fill="url(#paint9_linear_855_4638)"/>
<path d="M746.443 681.85C705.178 681.85 680.386 663.65 680.386 651.11C680.386 638.57 705.178 620.36 746.443 620.36C787.709 620.36 812.491 638.56 812.491 651.11C812.491 663.66 787.699 681.85 746.443 681.85Z" fill="url(#paint10_linear_855_4638)"/>
<path d="M688.58 664.85C699.047 655.81 719.13 647.84 746.443 647.84C773.756 647.84 793.84 655.81 804.307 664.85C809.655 660.24 812.501 655.35 812.501 651.11C812.501 638.57 787.709 620.36 746.453 620.36C705.197 620.36 680.396 638.56 680.396 651.11C680.396 655.35 683.241 660.23 688.589 664.85H688.58Z" fill="#201362"/>
<path d="M746.443 357.57C705.178 357.57 680.386 375.79 680.386 388.32V651.12C680.386 663.65 705.178 681.86 746.443 681.86C787.709 681.86 812.491 663.66 812.491 651.13V388.33C812.491 375.8 787.699 357.58 746.443 357.58V357.57Z" fill="url(#paint11_linear_855_4638)"/>
<path d="M792.026 528.34C792.073 526.28 791.959 524.22 791.691 522.17C788.368 496.7 768.6 477.7 750.464 479.36C742.194 480.11 737.447 485.06 734.993 492.11C731.02 489.07 726.092 487.72 721.212 488.33C712.446 489.78 709.705 497.73 709.924 507.43C707.747 505.7 705.34 504.62 703.039 504.84C697.442 505.34 695.867 510.87 696.153 516.89C696.43 522.53 700.241 527.84 704.691 530.62L704.672 530.64L705.207 530.92C705.35 530.99 705.484 531.08 705.627 531.15C705.732 531.21 705.837 531.26 705.951 531.3L785.742 573.76C787.107 574.62 788.53 575.39 790.001 576.04L790.135 576.1L790.832 576.47L790.794 576.39C800.898 580.52 810.218 577.04 810.744 562.27C811.355 545.69 803.085 531.01 792.035 528.33L792.026 528.34Z" fill="#2DD6CB"/>
<path d="M792.474 528.47L776.507 536.69L763.347 528.58V561.87L785.732 573.77C787.098 574.63 788.52 575.4 789.991 576.05L790.115 576.11L790.822 576.48L790.784 576.4C794.833 578.05 791.099 583.86 791.099 583.86C791.099 583.86 805.921 575.99 807.162 575.15C810.973 572.51 813.694 567.92 813.933 561.23C814.525 544.87 803.275 531.43 792.455 528.47H792.474Z" fill="url(#paint12_linear_855_4638)"/>
<path d="M739.004 513.57L731.44 508.9L730.228 489.44C727.353 488.29 724.249 487.91 721.203 488.34C719.064 488.74 716.991 489.5 715.081 490.59C710.45 493.08 700.136 499.22 700.136 499.22C700.136 499.22 705.331 504.63 703.029 504.85C697.433 505.35 695.857 510.88 696.153 516.9C696.43 522.54 700.241 527.85 704.681 530.63L704.662 530.65L705.197 530.93C705.34 531 705.474 531.09 705.617 531.16C705.722 531.22 705.827 531.27 705.942 531.31L739.004 548.91V513.56V513.57Z" fill="url(#paint13_linear_855_4638)"/>
<path d="M792.474 528.46L776.506 536.68L731.44 508.9L730.237 491.94C731.879 492.58 726.531 490.52 726.531 490.52C726.531 490.52 739.061 483.96 742.824 481.71C745.173 480.36 747.78 479.55 750.464 479.35C768.599 477.69 788.367 496.69 791.691 522.15C791.958 524.2 792.073 526.26 792.025 528.32C792.168 528.37 792.321 528.41 792.464 528.44L792.474 528.46Z" fill="url(#paint14_linear_855_4638)"/>
<path d="M775.265 584.73L775.303 584.81L774.74 584.51L774.463 584.39C772.954 583.72 771.493 582.93 770.089 582.04L690.48 539.7C690.347 539.64 690.213 539.58 690.079 539.51C689.879 539.4 689.678 539.29 689.468 539.17L689.124 538.98L689.143 538.96C684.712 536.18 680.892 530.88 680.615 525.24C680.329 519.22 681.904 513.69 687.491 513.18C690.012 513.13 692.457 514.05 694.367 515.76C694.148 506.07 697.337 498.15 706.095 496.69C710.612 495.95 715.329 497.39 719.455 500.43C721.909 493.38 726.656 488.44 734.926 487.68C753.042 486.02 772.811 505.02 776.144 530.49C776.421 532.53 776.535 534.6 776.488 536.66C787.718 539.28 798.281 553.35 797.679 569.95C797.268 581.15 790.45 586.22 782.714 586.22C780.164 586.2 777.634 585.69 775.246 584.72L775.265 584.73Z" fill="#8CBFEF"/>
<path d="M1126.26 450.87H1093.3L1056.62 428.69C1051.89 425.83 1043.65 426.19 1038.18 429.49L1002.81 450.87H969.875V474.04H969.885C969.856 476.27 971.107 478.3 973.046 479.21L1039.49 519.37C1044.21 522.22 1052.47 521.87 1057.94 518.57L1121.73 479.99C1124.57 478.28 1126.07 476.11 1126.22 474.02H1126.25V450.86L1126.26 450.87Z" fill="url(#paint15_linear_855_4638)"/>
<path d="M1039.52 497.21L973.084 457.04C968.357 454.18 968.949 449.2 974.411 445.9L1038.21 407.33C1043.66 404.03 1051.91 403.68 1056.64 406.53L1123.08 446.69C1127.8 449.55 1127.21 454.53 1121.75 457.83L1057.95 496.39C1052.5 499.69 1044.24 500.05 1039.52 497.2V497.21Z" fill="#F2F5FC"/>
<path opacity="0.75" d="M1004.54 252.23L1039.36 228.26C1043.37 225.5 1048.58 225.5 1052.58 228.27L1087.14 252.17C1090.49 254.49 1092.52 258.42 1092.52 262.63V446.45C1092.52 450.84 1090.33 454.9 1086.74 457.17L1051.95 479.23C1049.37 481.08 1045.98 481.09 1043.39 479.26L1005.29 457.04C1001.49 454.83 999.136 450.64 999.136 446.09V262.7C999.136 258.48 1001.17 254.55 1004.53 252.23H1004.54Z" fill="url(#paint16_linear_855_4638)"/>
<path d="M1073.88 365.22L1046.57 346.4L1032.99 354.5L1038.38 388.55L1045.97 403.77L1038.28 446.97L1074.43 406.56L1061.28 395.01L1073.87 365.21L1073.88 365.22Z" fill="#0064C8"/>
<path d="M1060.31 373.32L1033 354.5L1024.81 396.65L1043.73 409.69L1032.88 448.1C1032.58 449.14 1033.14 450.23 1034.14 450.54C1034.88 450.77 1035.67 450.5 1036.15 449.86L1062.35 414.68L1047.72 403.12L1060.31 373.32Z" fill="#1983DB"/>
<defs>
<linearGradient id="paint0_linear_855_4638" x1="697.785" y1="835.773" x2="702.796" y2="856.495" gradientUnits="userSpaceOnUse">
<stop stop-color="white"/>
<stop offset="0.51" stop-color="#CAD1E0"/>
<stop offset="1" stop-color="#C8CEDE"/>
</linearGradient>
<linearGradient id="paint1_linear_855_4638" x1="465.091" y1="389.324" x2="465.091" y2="454.164" gradientUnits="userSpaceOnUse">
<stop stop-color="white"/>
<stop offset="0.51" stop-color="#CAD1E0"/>
<stop offset="1" stop-color="#C8CEDE"/>
</linearGradient>
<linearGradient id="paint2_linear_855_4638" x1="456.132" y1="370.761" x2="456.132" y2="448.651" gradientUnits="userSpaceOnUse">
<stop stop-color="white"/>
<stop offset="0.51" stop-color="#CAD1E0"/>
<stop offset="1" stop-color="#C8CEDE"/>
</linearGradient>
<linearGradient id="paint3_linear_855_4638" x1="453.89" y1="384.338" x2="453.89" y2="389.098" gradientUnits="userSpaceOnUse">
<stop stop-color="white"/>
<stop offset="0.51" stop-color="#CAD1E0"/>
<stop offset="1" stop-color="#C8CEDE"/>
</linearGradient>
<linearGradient id="paint4_linear_855_4638" x1="450.756" y1="373.027" x2="450.756" y2="380.047" gradientUnits="userSpaceOnUse">
<stop stop-color="white"/>
<stop offset="0.51" stop-color="#CAD1E0"/>
<stop offset="1" stop-color="#C8CEDE"/>
</linearGradient>
<linearGradient id="paint5_linear_855_4638" x1="436.683" y1="288.393" x2="436.683" y2="540.289" gradientUnits="userSpaceOnUse">
<stop stop-color="white" stop-opacity="0"/>
<stop offset="1" stop-color="#2979E4"/>
</linearGradient>
<linearGradient id="paint6_linear_855_4638" x1="-163.72" y1="690.354" x2="-163.72" y2="690.354" gradientUnits="userSpaceOnUse">
<stop stop-color="white"/>
<stop offset="0.51" stop-color="#CAD1E0"/>
<stop offset="1" stop-color="#C8CEDE"/>
</linearGradient>
<linearGradient id="paint7_linear_855_4638" x1="-189.695" y1="678.578" x2="-188.759" y2="678.578" gradientUnits="userSpaceOnUse">
<stop stop-color="#FFE06A"/>
<stop offset="1" stop-color="#FFCC00"/>
</linearGradient>
<linearGradient id="paint8_linear_855_4638" x1="-170.063" y1="697.108" x2="-169.128" y2="697.108" gradientUnits="userSpaceOnUse">
<stop stop-color="#5E98F7"/>
<stop offset="1" stop-color="#4670BA"/>
</linearGradient>
<linearGradient id="paint9_linear_855_4638" x1="689.317" y1="645.01" x2="824.506" y2="645.01" gradientUnits="userSpaceOnUse">
<stop stop-color="#4579CC"/>
<stop offset="1" stop-color="#4DA9DA"/>
</linearGradient>
<linearGradient id="paint10_linear_855_4638" x1="756.185" y1="690.815" x2="756.185" y2="652.698" gradientUnits="userSpaceOnUse">
<stop stop-color="#FFE06A"/>
<stop offset="1" stop-color="#50A2DD"/>
</linearGradient>
<linearGradient id="paint11_linear_855_4638" x1="762.79" y1="734.604" x2="700.75" y2="387.086" gradientUnits="userSpaceOnUse">
<stop stop-color="#14B1FF"/>
<stop offset="1" stop-color="white" stop-opacity="0"/>
</linearGradient>
<linearGradient id="paint12_linear_855_4638" x1="807.392" y1="575.397" x2="767.036" y2="531.34" gradientUnits="userSpaceOnUse">
<stop stop-color="#2C5AA3"/>
<stop offset="0.17" stop-color="#3064AA"/>
<stop offset="0.46" stop-color="#3B80BE"/>
<stop offset="0.83" stop-color="#70A7E3"/>
<stop offset="1" stop-color="#75AAE2"/>
</linearGradient>
<linearGradient id="paint13_linear_855_4638" x1="747.603" y1="543.04" x2="704.21" y2="505.941" gradientUnits="userSpaceOnUse">
<stop stop-color="#2C5AA3"/>
<stop offset="0.17" stop-color="#3064AA"/>
<stop offset="0.46" stop-color="#3B80BE"/>
<stop offset="0.83" stop-color="#70A7E3"/>
<stop offset="1" stop-color="#75AAE2"/>
</linearGradient>
<linearGradient id="paint14_linear_855_4638" x1="786.283" y1="532.188" x2="746.927" y2="477.441" gradientUnits="userSpaceOnUse">
<stop stop-color="#2C5AA3"/>
<stop offset="0.17" stop-color="#3064AA"/>
<stop offset="0.46" stop-color="#3B80BE"/>
<stop offset="0.83" stop-color="#70A7E3"/>
<stop offset="1" stop-color="#75AAE2"/>
</linearGradient>
<linearGradient id="paint15_linear_855_4638" x1="1202.37" y1="692.563" x2="1207.42" y2="712.423" gradientUnits="userSpaceOnUse">
<stop stop-color="white"/>
<stop offset="0.51" stop-color="#CAD1E0"/>
<stop offset="1" stop-color="#C8CEDE"/>
</linearGradient>
<linearGradient id="paint16_linear_855_4638" x1="1032.62" y1="288.393" x2="1032.62" y2="537.744" gradientUnits="userSpaceOnUse">
<stop stop-color="white" stop-opacity="0"/>
<stop offset="1" stop-color="#2979E4"/>
</linearGradient>
</defs>
</svg>
